<?xml version="1.0" standalone="no"?><!DOCTYPE svg PUBLIC "-//W3C//DTD SVG 1.1//EN" "http://www.w3.org/Graphics/SVG/1.1/DTD/svg11.dtd"><svg t="1659507180058" class="icon" viewBox="0 0 1024 1024" version="1.1" xmlns="http://www.w3.org/2000/svg" p-id="1582" xmlns:xlink="http://www.w3.org/1999/xlink" width="200" height="200"><defs><style type="text/css">@font-face { font-family: feedback-iconfont; src: url("//at.alicdn.com/t/font_1031158_u69w8yhxdu.woff2?t=1630033759944") format("woff2"), url("//at.alicdn.com/t/font_1031158_u69w8yhxdu.woff?t=1630033759944") format("woff"), url("//at.alicdn.com/t/font_1031158_u69w8yhxdu.ttf?t=1630033759944") format("truetype"); }
</style></defs><path d="M952.1408 0H211.6096c-20.5568 0-37.1968 17.1776-37.1968 38.4v107.8784h-111.616C42.2656 146.2784 25.6 163.6096 25.6 185.0112v800.256C25.6 1006.6688 42.24 1024 62.7968 1024H803.328c20.5312 0 37.1968-17.3312 37.1968-38.7328V870.4h111.616c20.5312 0 37.1968-17.1776 37.1968-38.4v-793.6c0-21.2224-16.6656-38.4-37.1968-38.4zM102.4 226.9696h656.5376V940.9024H102.4V226.9696z m810.1376 568.8832h-72.96V190.6688c0-21.7088-16.3584-39.296-36.48-39.296H256V80.8448h656.5376v715.008z m-653.1072-415.232c-8.0896-21.0432-1.8688-37.7344 18.688-50.0224 20.5056-12.3136 37.8624-7.4752 51.9936 14.4896l103.3216 170.5472 106.368-170.5472c12.672-21.0688 29.2096-26.8032 49.6128-17.2288 20.4032 9.6 26.4192 27.1872 17.9968 52.7616l-105.1904 168.704h87.1936c8.96 7.6032 13.4144 17.3824 13.4144 29.3632 0 11.9808-4.48 21.7088-13.4144 29.184l-113.0752 0.7168v48.3072h113.0752c9.088 7.3216 13.568 17.0752 13.4144 29.2352-0.1536 12.16-4.608 21.9392-13.4144 29.312h-113.0752v123.2896c2.2016 35.2256-11.776 53.1968-41.8816 53.888-30.1312 0.6912-44.7744-17.2544-43.9552-53.888v-123.2896h-112.384c-11.648-6.1952-17.4592-15.9488-17.4592-29.312s5.8112-23.1168 17.4336-29.2352h112.4096l-0.6912-49.024h-111.7184c-11.1872-7.6544-16.9984-17.3824-17.408-29.184-0.4608-11.8272 5.376-21.6064 17.408-29.3632h86.528l-105.216-168.704z" p-id="1583"></path></svg>