<?xml version="1.0" standalone="no"?><!DOCTYPE svg PUBLIC "-//W3C//DTD SVG 1.1//EN" "http://www.w3.org/Graphics/SVG/1.1/DTD/svg11.dtd"><svg t="1659506535385" class="icon" viewBox="0 0 1070 1024" version="1.1" xmlns="http://www.w3.org/2000/svg" p-id="3124" xmlns:xlink="http://www.w3.org/1999/xlink" width="208.984375" height="200"><defs><style type="text/css">@font-face { font-family: feedback-iconfont; src: url("//at.alicdn.com/t/font_1031158_u69w8yhxdu.woff2?t=1630033759944") format("woff2"), url("//at.alicdn.com/t/font_1031158_u69w8yhxdu.woff?t=1630033759944") format("woff"), url("//at.alicdn.com/t/font_1031158_u69w8yhxdu.ttf?t=1630033759944") format("truetype"); }
</style></defs><path d="M547.137255 954.980392c-238.431373 0-493.176471-55.215686-493.176471-159.372549 0-75.294118 130.509804-114.196078 209.568628-131.764706 10.039216-2.509804 20.078431 3.764706 22.588235 13.803922 2.509804 10.039216-3.764706 20.078431-13.803922 22.588235-124.235294 27.607843-180.705882 67.764706-180.705882 96.627451 0 50.196078 173.176471 121.72549 455.529412 121.72549 37.647059 0 75.294118-1.254902 111.686274-3.764706 10.039216 0 18.823529 7.529412 20.078432 17.568628 1.254902 10.039216-7.529412 18.823529-17.568628 20.078431-37.647059 1.254902-75.294118 2.509804-114.196078 2.509804zM752.941176 943.686275c-8.784314 0-17.568627-7.529412-18.823529-16.313726-1.254902-10.039216 6.27451-20.078431 16.313726-21.333333l5.019607-1.254902c10.039216-1.254902 20.078431 6.27451 21.333334 16.313725s-6.27451 20.078431-16.313726 21.333334l-5.019608 1.254902H752.941176zM858.352941 921.098039c-8.784314 0-16.313725-5.019608-18.823529-13.803921-2.509804-10.039216 3.764706-20.078431 13.803921-22.588236 109.176471-28.862745 148.078431-65.254902 148.078432-87.843137 0-27.607843-55.215686-67.764706-178.196079-94.117647-10.039216-2.509804-16.313725-12.54902-13.803921-22.588235 2.509804-10.039216 12.54902-16.313725 22.588235-13.803922 134.27451 28.862745 208.313725 75.294118 208.313725 131.764706 0 65.254902-96.627451 102.901961-176.941176 124.235294-1.254902-1.254902-2.509804-1.254902-5.019608-1.254902z" p-id="3125"></path><path d="M548.392157 854.588235l-12.54902-11.294117c-11.294118-11.294118-291.137255-279.843137-291.137255-518.27451C245.960784 87.843137 444.235294 25.098039 549.647059 25.098039c97.882353 0 298.666667 70.27451 298.666666 289.882353 0 215.843137-171.921569 434.196078-287.372549 528.313726l-12.549019 11.294117zM549.647059 62.745098c-2.509804 0-266.039216 2.509804-266.039216 261.019608 0 197.019608 213.333333 425.411765 267.294118 479.372549 105.411765-92.862745 259.764706-296.156863 259.764706-489.411765 0-204.54902-193.254902-250.980392-261.019608-250.980392z m-2.509804 407.843137c-22.588235 0-45.176471-5.019608-65.254902-15.058823-77.803922-36.392157-112.941176-129.254902-76.54902-208.313726 17.568627-37.647059 48.941176-66.509804 87.843138-81.568627 38.901961-15.058824 81.568627-12.54902 119.215686 5.019608s66.509804 48.941176 81.568627 87.843137c15.058824 38.901961 12.54902 81.568627-5.019608 119.215686s-48.941176 66.509804-87.843137 81.568628c-17.568627 8.784314-35.137255 11.294118-53.960784 11.294117z m0-276.078431c-13.803922 0-27.607843 2.509804-41.411765 7.529412-28.862745 11.294118-52.705882 33.882353-66.509804 62.745098-13.803922 28.862745-15.058824 61.490196-3.764706 90.352941 11.294118 30.117647 32.627451 53.960784 61.490196 66.509804 28.862745 13.803922 61.490196 15.058824 90.352942 3.764706 30.117647-11.294118 53.960784-32.627451 66.509804-61.490196 13.803922-28.862745 15.058824-61.490196 3.764705-90.352942s-32.627451-53.960784-61.490196-66.509803c-15.058824-8.784314-31.372549-12.54902-48.941176-12.54902z" p-id="3126"></path></svg>